<?xml version="1.0" standalone="no"?>
<!DOCTYPE svg PUBLIC "-//W3C//DTD SVG 1.0//EN" "http://www.w3.org/TR/2001/REC-SVG-20010904/DTD/svg10.dtd">
<svg xmlns="http://www.w3.org/2000/svg" xmlns:xlink="http://www.w3.org/1999/xlink" id="body_1" width="444" height="500">

<g transform="matrix(0.390625 0 0 0.390625 0.25000572 -0)">
	<g transform="matrix(0.1 0 -0 -0.1 0 1280)">
        <path d="M5450 11879C 4991 11827 4558 11617 4233 11288C 4053 11107 3943 10951 3836 10729C 3458 9944 3618 9009 4237 8393C 4553 8078 4970 7872 5407 7815C 5539 7798 5798 7795 5920 7810C 6302 7858 6669 8012 6963 8249C 7330 8546 7592 8976 7685 9435C 7805 10029 7656 10648 7280 11119C 6939 11546 6440 11820 5898 11879C 5786 11892 5560 11891 5450 11879z" stroke="none" fill="#673AB7" fill-rule="nonzero" />
        <path d="M4285 7773C 4263 7764 4198 7739 4142 7717L4142 7717L4038 7678L3906 7546C 3570 7213 3366 6816 3265 6301C 3240 6169 3210 5917 3210 5831L3210 5831L3210 5782L3288 5765C 3452 5729 3595 5645 3728 5506C 3986 5237 4132 4854 4165 4354L4165 4354L4171 4264L4078 4185C 4027 4142 3981 4103 3977 4099C 3972 4095 3974 4082 3980 4070C 4000 4032 3995 3956 3970 3915C 3926 3843 3816 3817 3749 3863C 3698 3897 3670 3945 3670 3997C 3670 4057 3695 4107 3739 4135C 3789 4167 3829 4174 3878 4157L3878 4157L3920 4142L4005 4202C 4102 4270 4097 4252 4080 4435C 4030 4976 3785 5422 3443 5594C 3316 5657 3128 5679 2995 5645C 2595 5542 2286 5077 2221 4478C 2215 4424 2210 4352 2210 4318L2210 4318L2211 4255L2287 4204C 2357 4157 2366 4153 2396 4162C 2468 4181 2554 4134 2585 4058C 2627 3952 2546 3840 2427 3840C 2311 3840 2230 3979 2289 4076L2289 4076L2308 4108L2219 4184L2130 4261L2130 4314C 2130 4647 2252 5067 2425 5329C 2560 5534 2758 5695 2934 5746L2934 5746L2998 5764L3004 5865C 3048 6530 3261 7086 3626 7490L3626 7490L3685 7554L3587 7502C 3070 7226 2606 6820 2247 6328C 1832 5759 1555 5051 1462 4319L1462 4319L1443 4175L1508 4080C 2137 3161 3231 2583 4675 2406C 5079 2356 5737 2335 6150 2359C 7418 2433 8393 2750 9150 3336C 9374 3509 9689 3843 9860 4090L9860 4090L9912 4165L9906 4244C 9889 4455 9813 4799 9723 5073C 9597 5460 9444 5772 9215 6115C 8881 6614 8464 7020 7950 7348C 7826 7427 7600 7553 7600 7543C 7600 7540 7632 7504 7671 7462C 7876 7242 8066 6933 8185 6627C 8222 6530 8292 6296 8302 6236C 8304 6221 8320 6214 8375 6203C 8459 6187 8587 6126 8653 6071C 8754 5987 8832 5863 8865 5735C 8884 5659 8884 5511 8865 5435C 8810 5217 8626 5031 8410 4975C 8326 4953 8184 4952 8101 4974C 7892 5028 7720 5189 7654 5393C 7616 5511 7616 5660 7654 5777C 7713 5959 7855 6107 8034 6175C 8106 6202 8104 6189 8054 6365C 7935 6779 7716 7151 7410 7461C 7251 7622 7016 7809 6996 7790C 6994 7787 6696 7261 6335 6620C 5974 5979 5669 5440 5658 5422L5658 5422L5638 5389L5058 6472C 4739 7068 4450 7608 4417 7672C 4378 7745 4349 7789 4340 7789C 4332 7788 4307 7781 4285 7773zM6990 4650L6990 4440L7200 4440L7410 4440L7410 4260L7410 4080L7200 4080L6990 4080L6990 3870L6990 3660L6810 3660L6630 3660L6630 3870L6630 4080L6415 4080L6200 4080L6200 4260L6200 4440L6415 4440L6630 4440L6630 4650L6630 4860L6810 4860L6990 4860L6990 4650z" stroke="none" fill="#673AB7" fill-rule="nonzero" />
        <path d="M8140 5981C 7998 5935 7906 5847 7861 5712C 7777 5465 7956 5195 8218 5173C 8343 5163 8455 5204 8546 5294C 8767 5516 8673 5887 8373 5980C 8294 6004 8213 6005 8140 5981z" stroke="none" fill="#673AB7" fill-rule="nonzero" />
	</g>
</g>
</svg>