<?xml version="1.0" standalone="no"?>
<!DOCTYPE svg PUBLIC "-//W3C//DTD SVG 1.0//EN" "http://www.w3.org/TR/2001/REC-SVG-20010904/DTD/svg10.dtd">
<svg xmlns="http://www.w3.org/2000/svg" xmlns:xlink="http://www.w3.org/1999/xlink" id="body_1" width="360" height="360">

<g transform="matrix(0.28125 0 0 0.28125 0 0)">
	<g transform="matrix(0.1 0 -0 -0.1 0 1280)">
        <path d="M2479 12009C 2392 11996 2167 11943 2082 11914C 1798 11820 1486 11590 1296 11336C 1119 11100 1050 10952 985 10670C 966 10590 946 10481 941 10428C 926 10295 926 2532 940 2406C 964 2197 1039 1934 1119 1776C 1224 1570 1413 1339 1585 1205C 1815 1026 1974 947 2239 880C 2497 815 2148 820 6535 820C 10907 820 10566 815 10825 879C 11055 936 11197 1000 11394 1138C 11628 1302 11822 1528 11950 1785C 12042 1970 12108 2207 12130 2432C 12137 2501 12140 3844 12137 6490C 12134 10207 12133 10450 12117 10530C 12044 10880 11976 11051 11813 11282C 11709 11431 11589 11555 11449 11659C 11232 11822 11078 11896 10840 11956C 10561 12025 10920 12020 6520 12019C 4328 12018 2510 12014 2479 12009zM9833 10580C 10093 10550 10370 10367 10510 10132C 10567 10035 10617 9907 10630 9825C 10637 9776 10640 8750 10638 6400L10638 6400L10635 3045L10606 2970C 10504 2701 10348 2520 10125 2410C 10002 2350 9948 2332 9851 2319C 9801 2313 8614 2310 6450 2312L6450 2312L3125 2315L3021 2352C 2717 2461 2511 2668 2403 2975L2403 2975L2375 3055L2375 6445L2375 9835L2398 9905C 2455 10074 2533 10200 2652 10316C 2743 10405 2816 10456 2924 10505C 3025 10550 3090 10570 3168 10580C 3271 10592 9728 10592 9833 10580z" stroke="none" fill="#673AB7" fill-rule="nonzero" />
        <path d="M7295 9344C 7003 9316 6758 9194 6508 8951L6508 8951L6440 8886L6388 8904C 6359 8914 6281 8948 6215 8981C 6045 9065 5969 9084 5795 9084C 5628 9085 5552 9067 5395 8990C 5268 8928 5157 8839 5046 8714C 4884 8530 4793 8370 4726 8149C 4682 8001 4666 7871 4673 7711C 4686 7403 4793 7192 5119 6831C 5223 6715 5319 6618 5419 6527L5419 6527L5503 6450L5413 6450L5324 6450L5224 6598C 5136 6729 5121 6746 5085 6759C 5034 6776 4943 6760 4902 6725C 4887 6713 4845 6651 4810 6589C 4774 6527 4744 6482 4743 6490C 4741 6498 4686 6939 4620 7470C 4454 8796 4432 8965 4418 8995C 4398 9040 4347 9063 4273 9061C 4202 9060 4158 9042 4134 9006C 4115 8976 4106 8882 4080 8445C 4069 8258 4040 7772 4015 7365C 3990 6958 3967 6567 3964 6495C 3961 6424 3956 6358 3952 6350C 3949 6342 3941 6403 3934 6486C 3918 6690 3904 6714 3792 6740C 3681 6766 3657 6747 3525 6531C 3481 6459 3441 6400 3437 6400C 3433 6400 3377 6446 3312 6503C 3129 6664 3128 6665 3051 6665C 2986 6665 2982 6663 2835 6578C 2753 6529 2676 6490 2664 6490C 2652 6490 2631 6481 2616 6469C 2590 6449 2590 6447 2590 6325C 2590 6203 2590 6201 2616 6181C 2669 6139 2768 6161 2913 6246C 2973 6281 3025 6310 3030 6310C 3035 6310 3117 6241 3214 6156C 3406 5988 3418 5981 3511 6001C 3553 6010 3574 6021 3603 6052L3603 6052L3640 6091L3640 6053C 3640 6015 3648 5904 3675 5535C 3683 5425 3699 5205 3710 5045C 3721 4886 3744 4564 3761 4330C 3778 4096 3792 3832 3793 3743L3793 3743L3795 3581L3824 3551C 3863 3510 3910 3496 3986 3503C 4057 3508 4101 3533 4118 3577C 4124 3593 4131 3700 4134 3815C 4136 3931 4150 4207 4164 4430C 4188 4810 4217 5283 4240 5675C 4246 5769 4259 5994 4270 6175C 4304 6742 4309 6822 4315 6945C 4318 7011 4324 7081 4327 7100C 4331 7122 4359 6923 4405 6560C 4445 6244 4480 5966 4484 5942C 4500 5855 4570 5812 4677 5825C 4752 5834 4775 5861 4900 6085C 4958 6188 5010 6280 5016 6288C 5025 6300 5035 6291 5071 6239C 5100 6197 5131 6166 5160 6150L5160 6150L5205 6125L5558 6120L5910 6115L6033 6018C 6750 5452 6765 5440 6807 5440C 6847 5440 6882 5489 6939 5626C 6991 5750 7118 6010 7160 6078L7160 6078L7180 6110L7320 6110C 7507 6110 7537 6118 7635 6197L7635 6197L7715 6261L7732 6240C 7742 6228 7796 6143 7853 6053C 7909 5962 7971 5869 7991 5846L7991 5846L8028 5805L8113 5805C 8194 5805 8200 5807 8229 5834C 8245 5849 8273 5889 8290 5921C 8307 5953 8322 5980 8324 5980C 8326 5980 8332 5911 8339 5828C 8346 5744 8362 5545 8375 5385C 8388 5226 8411 4947 8425 4765C 8496 3854 8519 3600 8532 3574C 8560 3516 8626 3491 8715 3504C 8772 3513 8825 3557 8834 3603C 8841 3638 8854 3833 8870 4125C 8880 4314 8892 4517 8910 4830C 8915 4921 8924 5078 8930 5180C 8959 5691 8981 6092 8990 6245C 8996 6339 9009 6572 9021 6765C 9032 6957 9042 7115 9043 7116C 9044 7118 9067 6949 9094 6742C 9181 6062 9198 5942 9215 5910C 9234 5873 9267 5853 9332 5841C 9403 5828 9450 5841 9484 5881C 9498 5897 9555 6001 9610 6111L9610 6111L9711 6310L9770 6236C 9803 6194 9843 6154 9859 6145C 9884 6133 9935 6130 10148 6130C 10310 6130 10419 6134 10438 6141C 10481 6156 10493 6200 10489 6323C 10483 6462 10498 6454 10227 6460L10227 6460L10005 6465L9915 6577C 9866 6639 9811 6704 9794 6721C 9759 6755 9709 6767 9636 6756C 9578 6747 9545 6715 9492 6614L9492 6614L9452 6536L9446 6570C 9440 6604 9404 6884 9320 7535C 9298 7711 9273 7902 9265 7960C 9257 8018 9230 8223 9205 8415C 9140 8921 9135 8949 9103 8982C 9036 9052 8874 9037 8836 8956C 8818 8917 8814 8872 8780 8275C 8769 8077 8751 7762 8740 7575C 8729 7388 8716 7150 8710 7045C 8704 6941 8695 6788 8690 6705C 8685 6623 8675 6453 8669 6328C 8662 6202 8654 6100 8650 6100C 8646 6100 8638 6175 8631 6268C 8612 6528 8600 6622 8582 6652C 8560 6689 8514 6710 8438 6716C 8343 6724 8329 6712 8233 6529C 8188 6444 8141 6354 8129 6328C 8116 6301 8104 6280 8101 6280C 8097 6280 8052 6348 8000 6432C 7889 6609 7858 6644 7804 6653C 7698 6671 7684 6665 7524 6530C 7472 6486 7427 6450 7424 6450C 7411 6450 7619 6677 7868 6932C 8260 7335 8355 7455 8434 7650C 8489 7785 8504 7879 8505 8075C 8505 8314 8471 8458 8366 8675C 8228 8956 7967 9195 7695 9288C 7577 9328 7397 9353 7295 9344z" stroke="none" fill="#673AB7" fill-rule="nonzero" />
	</g>
</g>
</svg>